<?xml version="1.0" encoding="UTF-8"?>
<svg xmlns="http://www.w3.org/2000/svg" width="200" height="200" version="1.1" viewBox="0 0 200 200">
  <defs>
    <style>
      .cls-1 {
        fill: #86be49;
      }

      .cls-2 {
        fill: #89bf4a;
      }

      .cls-3 {
        fill: #89bf4b;
      }

      .cls-4 {
        fill: #88be49;
      }

      .cls-5 {
        fill: #5f88b3;
      }

      .cls-6 {
        fill: #5d87b2;
      }

      .cls-7 {
        fill: #5f89b4;
      }
    </style>
  </defs>
  <!-- Generator: Adobe Illustrator 28.7.2, SVG Export Plug-In . SVG Version: 1.2.0 Build 154)  -->
  <g>
    <g id="Layer_1">
      <g>
        <g>
          <path class="cls-3" d="M13.5,154.8c1.9-.4,3.8-1,5.4-2.4v8.6c.5-1.2,1.1-2.7,1.8-4.1.9-1.7,2.1-3.3,3.8-4.3.7-.4,1.5-.6,2.3-.8,1.5-.2,2.7.4,3.7,1.5,1.3,1.5,1.9,3.4,2.2,5.3.6,3.3.5,6.6-.4,9.8-.9,3.3-2.1,4.9-5.1,7.4.5,0,1.1-.2,1.6-.2,1.5-.2,2.9-.3,4.3.3,2.8,1.2,4.3,3.4,4.9,6.3,1.2,6.1-1.2,10.8-6,14.4-3,2.2-6.5,3.3-10.2,3.3-2.8,0-5.6,0-8.4,0v-.8c1.4.1,1.8-.3,1.8-1.7v-39.9c0-1.4-.4-1.8-1.8-1.8,0-.3,0-.5,0-.8ZM19,198.9c2,0,4,0,6-.2,2.9-.3,5.4-1.5,7.1-3.9,2.9-3.8,3.4-8.1,2-12.5-.9-2.9-3-4.6-6.2-4.9-1.8-.2-3.6.2-5.3.6-1.2.3-2.4.6-3.6.9,0,6.7,0,13.3,0,20.1ZM18.9,177.6c1.4-.3,2.7-.6,4-.9,3.4-.7,5.4-2.8,6.3-6.1.7-2.5.7-5,.5-7.5-.1-2.1-.5-4.1-1.3-6-.4-1-.9-1.9-1.7-2.7-.9-.8-1.8-.8-2.7,0-.4.3-.7.7-1.1,1.1-1.4,1.8-2.3,3.8-3,6-.5,1.6-1,3.3-1,5.1,0,3.4,0,6.9,0,10.3,0,.2,0,.4,0,.8Z"/>
          <path class="cls-5" d="M153.9,199.9v-.6c.1,0,.1-.1.2-.1,1.5-.3,1.6-.3,1.7-1.8.2-2,.3-4,.5-6,.3-2.8,1-5.6,2.1-8.2,1.3-3.1,3.3-5.7,6.6-7.1-.4-.2-.8-.4-1.1-.5-1.9-1-3.2-2.7-4.2-4.5-1.5-2.8-2.4-5.8-2.8-8.9-.3-2.3-.5-4.6-.5-6.9,0-1.3-.6-1.9-1.9-1.9v-.8h7v.9h-1.9c0,1.3,0,2.6.2,3.8.3,3.2.8,6.4,1.9,9.4.9,2.3,2,4.5,3.9,6.3,1.2,1.1,2.7,1.7,4.3,1.8.3,0,.7-.1,1-.3,2-1.4,3.2-3.3,4.1-5.6.9-2.4,1.4-4.9,1.7-7.5.2-2.1.3-4.1.4-6.2,0-1.2-.3-1.6-1.5-1.7,0,0-.2,0-.3,0,0-.1,0-.3,0-.4,0-.1,0-.3,0-.5h7v.9h-1.8c0,.4,0,.7,0,1,0,3.5-.2,7.1-1,10.6-.6,2.7-1.5,5.2-3.6,7.1-.9.9-2.1,1.5-3.1,2.2-.3.2-.6.3-.9.5,3,1.3,4.3,4,5.5,6.7,1.6,3.6,2.5,7.4,3.1,11.3.3,2.1.5,4.2.8,6.4h1.8v.8c-2.5,0-5,0-7.6,0,0-.3,0-.5-.1-.8,1.8-.3,2-.6,1.8-2.4-.1-1.2-.3-2.4-.5-3.6,0-.2,0-.4-.1-.6-.3-1.7-.7-3.5-1-5.2,0-.2-.1-.5-.2-.7-.6-2.4-1.4-4.7-2.7-6.9-.7-1.2-1.6-2.3-2.9-2.9-2.7-1.2-3.5-1.1-5,.8-2.6,3.2-3.5,7.1-4.1,11.1,0,.4-.1.7-.2,1.1,0,0,0,.1,0,.2-.2,2.4-.4,4.8-.6,7.2,0,.6,0,1.2,0,1.8h.8c.4,0,.8,0,1.1.1,0,.2,0,.4,0,.7-2.6,0-5.1,0-7.7,0Z"/>
          <path class="cls-5" d="M87.8,200v-1c.7,0,1.3,0,2,0,.4,0,.7-.1,1.1-.4,2-1.9,3.2-4.2,4.3-6.7,1.4-3.4,2.3-7,2.6-10.7.5-4.2.8-8.5,1-12.8.2-4.1.2-8.2.3-12.3,0-.5,0-.9,0-1.4-.2-1.3-.4-1.5-1.8-1.6v-.8h16.1v.9h-1.8c0,.3,0,.6,0,.8.1,4.5.1,8.9.3,13.4.3,6.5.9,13,2.3,19.4.7,3.2,1.6,6.4,3.3,9.2.6,1,1.3,1.8,2,2.6.2.2.6.3.9.3.7,0,1.5,0,2.3,0,0,.4,0,.7.1,1-11.6,0-23.3,0-34.9,0ZM102.8,153.6c-.1,4-.2,7.9-.4,11.8-.2,3.9-.5,7.8-.8,11.7-.3,3.9-1.1,7.8-2.3,11.5-1.3,4-2.7,7.9-6.5,10.4h25.1c-.4-.3-.7-.5-1-.7-1.7-1.3-2.7-3-3.3-4.9-.8-2.3-1.4-4.7-2.1-7.1-1.1-4.2-1.7-8.5-1.9-12.8-.1-1.7-.3-3.4-.3-5.2-.1-4.5-.1-9-.2-13.5,0-.4,0-.8,0-1.2-2.2,0-4.3,0-6.3,0Z"/>
          <path class="cls-6" d="M135.5,61.6c.4.4.9.8,1.3,1.3,1.4,1.9,1.7,4.1.6,6.3-1.8,3.5-4.9,5.6-8.5,7-2.5,1-5.2,1.1-7.9,1.5-3.6.5-7,1.4-10.2,3.1-.2.1-.5.2-.8.3.6-.6,1.2-1.1,1.8-1.8,1.1-1.2,2.1-2.5,2.7-4.1.6-1.8,0-3.3-1.5-4.3-2-1.3-4.2-1.9-6.5-1.1-2.8,1-5.5,2.2-8.3,3.3-.6.1-1.1.3-1.7.5-3.6,1.1-7.3,1.5-11,1.6-2.1,0-4.2,0-6.3-.1-1.4,0-2.8-.2-4.2-.5-2.5-.4-4.9-1.2-7.2-2.2-4.1-1.8-7.5-4.4-10.3-7.9-3.5-4.5-5.1-9.7-5-15.4,0-1.2.2-2.3.3-3.5.9-4.9,2.8-9.5,5.9-13.5,1.1-1.5,2.4-2.9,3.7-4.4.9-1,1.8-1.7,2-1.9,0,.1-1.5,1.8-1.6,1.9-3.3,3.9-4.8,8.5-4.9,13.6,0,1.8.1,3.5.4,5.3.4,3,1.2,5.8,2.5,8.5,2.1,4.2,5.2,7.3,9.5,9.2,2.3,1,4.6,1.6,7.1,1.8,2.8.3,5.6.2,8.3-.2,2.3-.4,4.5-1,6.8-1.4,2.3-.4,4.6-.7,6.9-.9,2.2-.2,4.5,0,6.7.5,2.2.5,4.2,1.3,5.8,2.9,1.4,1.3,2.2,2.9,2.7,4.7,0-.1,0-.3,0-.4-.1-.6-.2-1.1-.4-1.7-1.4-4.7-4.6-7.5-9.1-9-2-.6-4-1-6-1s-4.2,0-6.3.1c-1.7,0-3.4.4-5.1.4s-4.1-.1-6.2-.4c-3.6-.5-6.9-1.6-10-3.5-2.4-1.5-4.5-3.4-5.6-6.1-.9-2.1-1.8-4.1-2.4-6.3-1-3.2-1.3-6.5-.7-9.8.8-4.6,3.2-8.3,6.8-11.3.9-.8,2-1.4,2.9-2.1h0c0,0,.2-.1.3-.1,1.8-.7,3.8-1.1,5.7-1.2,4-.3,7.9.5,11.7,1.8,3.5,1.3,6.9,2.7,10.3,4.1,2.2.9,4.5,1.7,6.8,2,2,.2,4,0,5.6-1.3,1.5-1.3,2.1-3.3,1.4-5.2-.6-1.8-2.3-3.1-4.3-3.1-1.2,0-2.5.3-3.7.5-2.8.5-5.5.5-8.2-.6-1.9-.8-3.3-2.1-3.8-4.2-.4-1.7,0-3.3.9-4.7,3.4-5.5,2.9-6.5,3.5-10.1,0,.7,0,1.4,0,2.1,0,.7,0,1.4.1,2.1.2,2.5.5,5,1.3,7.4.1.3.2.6.3.9.8,2.3,2.5,3.6,4.9,3.9,2,.3,4,.2,6,0,3.5-.6,6.9-.4,10.2,1.1,5.8,2.6,7.6,9.8,3.7,14.8-1.8,2.2-4.1,3.4-7,3.6-2.6.2-5.1-.5-7.7-1-.7-.2-1.4-.4-2.2-.5-.6,0-1.3,0-1.9.2-3.5,1.1-5.4,3.6-6.4,6.9-.9,3.1-.6,6.1,1.5,8.7,1.4,1.7,3.3,2.7,5.3,3.5,3.3,1.3,6.7,2,10.1,2.8,4.9,1.2,9.9,2.3,14.7,3.9,3,1,5.8,2.2,8.3,4.2,2.7,2.2,4.2,5.1,4.5,8.6.4,5.3-1.6,9.7-5.2,13.5-3.2,3.3-7,5.8-11,7.9-3.7,2-7.7,3.5-11.6,5-3,1.2-5.7,3-7.6,5.6-.6.8-1,1.7-1.4,2.6,0,.1-.1.3-.2.4h0c-.3.8-.6,1.6-1,2.4-.1.3-.3.6-.4.9-.6,1.7-1.7,2.6-3.4,3.3-1.4.4-2.6,1.1-3.5,2.5,0-.8,0-1.5,0-2.2,0-1.3.2-2.6.6-3.9.7-2.3,2.3-3.8,4.5-4.6.7-.3,1.6-.7,2.1-1.2.2-.3.3-.6.1-1.2-.3-.4-.8-.6-1.2-.4-.6.3-1.2.6-1.8,1-1.6,1.1-3.2,2.2-4.2,3.9-.4.7-.6,1.2-.7,2.2-.4-.7-.6-1.1-.8-1.8-.1-1.5-.4-2.9-.4-4.4,0-1.2,0-2.4.1-3.7,0,0,0-.2.1-.3.3-2.1.8-4.1,1.6-6,.2-.2.3-.5.5-.7.4-.5.9-1,1.4-1.4,2.6-2.3,5.7-3.5,9-4.3,2.9-.7,5.8-.9,8.8-1.1,3-.2,6-.8,8.8-2,4.5-1.8,8.1-4.7,10.2-9.2,1.4-3.2,1.8-6.4.5-9.7-.6-1.6-1.5-2.9-2.9-3.8M107,32.6c-1.2,0-2.5-.2-3.7-.2-2.2,0-4.2.8-5.6,2.5-3.2,3.9-4.7,8.4-3.8,13.4.6,3.3,2.1,6,5.3,7.5,1.5.7,3.1,1.2,4.7,1.7,2.8.8,5.7,1.4,8.5,2.1,2.3.6,4.3,1.8,5.9,3.6,1.7,2,2.8,4.3,2.6,7,0,.9-.3,1.8-.5,2.7.7-.9,1.4-1.7,1.9-2.7,1.9-3.7,1.4-9.9-4.5-12-2.4-.9-4.9-1.3-7.4-1.7-2.3-.4-4.5-.8-6.7-1.7-3.3-1.3-5.4-3.6-6.4-7-.7-2.6-.9-5.3-.3-8,.7-3.2,2.5-5.5,5.7-6.5,1.4-.4,2.9-.5,4.4-.7Z"/>
          <path class="cls-1" d="M64.3,26c2.2-2,4.6-3.6,7.3-4.8.2,0,.4-.1.7-.2-1,.7-2,1.4-2.9,2.1-3.6,2.9-6,6.6-6.8,11.3-.6,3.3-.3,6.6.7,9.8.7,2.1,1.5,4.2,2.4,6.3,1.1,2.7,3.2,4.6,5.6,6.1,3.1,1.9,6.5,3,10,3.5,2,.3,4.1.4,6.2.4s3.4-.3,5.1-.4c2.1-.1,4.2-.1,6.3-.1s4.1.4,6,1c4.5,1.5,7.8,4.3,9.1,9,.2.6.2,1.1.4,1.7,0,.1.2,1.2.1,1.3-.5-1.8-1.5-4.3-2.9-5.6-1.6-1.6-3.7-2.4-5.8-2.9-2.2-.5-4.4-.7-6.7-.5-2.3.2-4.6.5-6.9.9-2.3.4-4.5,1-6.8,1.4-2.7.5-5.5.5-8.3.2-2.5-.2-4.8-.8-7.1-1.8-4.3-1.9-7.4-5-9.5-9.2-1.3-2.7-2.1-5.6-2.5-8.5-.2-1.7-.4-3.5-.4-5.3.1-5.1,1.5-9.8,4.8-13.7,0-.1.3-.3.4-.5.2-.2.3-.4.5-.5"/>
          <path class="cls-4" d="M97.5,100.1c0,1.2-.2,2.4-.1,3.7,0,1.5.3,2.9.4,4.4-1.3-1.6-2.7-3.3-4-4.9-4.3-5.1-3.6-12.2,1.6-16.3.8-.7,1.8-1.2,2.6-1.9.8-.6,1.6-1.3,2.2-2,1.1-1.4.9-3-.5-4.1-1.4-1.2-3.1-1.7-4.9-2.1-3.4-.8-6.9-.7-10.4-.2-5.6.8-11.2,1-16.9-.2-7.8-1.6-12.5-6.4-14.7-13.9-1.3-4.5-1.4-9.2-.7-13.8.2-1,.4-1.9.6-2.9,0,1.2-.3,2.3-.3,3.5,0,5.7,1.5,10.9,5,15.4,2.7,3.5,6.2,6.1,10.3,7.9,2.3,1,4.7,1.7,7.2,2.2,1.4.2,2.8.4,4.2.5,2.1.1,4.2.2,6.3.1,3.7,0,7.4-.6,11-1.6.6-.2,1.1-.3,1.7-.5.2,0,.5,0,.7,0,1.5,0,3,.4,4.4,1.1,2.4,1.3,3.4,3.4,2.7,5.8-.9,2.8-2.6,5-5.5,6.2-.7.3-1.4.5-2.1.9-2.9,1.2-4.7,4.9-3.9,7.9.5,2,1.7,3.5,3.1,4.9Z"/>
          <path class="cls-2" d="M50.3,191.2v7.9c-.8-.5-1.7-1-2.6-1.4-.9-.4-1.9-.6-2.8-.9v-.7c.2,0,.4,0,.6,0,.8-.1,1.2-.6,1.2-1.4,0-.2,0-.3,0-.5,0-13.6,0-27.1,0-40.7v-.8h-6.3c0-.3,0-.5,0-.8h11.8c0,.2,0,.4,0,.6,0,0-.1.1-.1.1-1.6.2-1.7.4-1.7,2,0,4.9,0,9.8,0,14.7v3.5c1,.3,2.1.6,3.2.9,1,.3,2,.6,3,.9,3.1.9,5.1,3.1,6.4,5.9,1.4,3.1,1.7,6.5,1.5,9.9-.1,2-.5,4-1.4,5.9-.3.6-.7,1.2-1.1,1.8-1.5,1.9-3.6,2.3-5.7,1-2.2-1.3-3.7-3.3-4.9-5.5-.4-.8-.7-1.6-1.1-2.4ZM50.3,174.1c0,4,0,7.8,0,11.7,0,.6,0,1.1.1,1.7.4,2.4,1.4,4.7,2.6,6.8.6,1,1.3,2,2.2,2.9,1,1.1,2,1,3-.1.5-.7,1-1.4,1.3-2.2,1.8-4.4,2.2-9,1.1-13.6-.6-2.6-2.1-4.8-4.7-5.7-1.8-.6-3.6-1-5.5-1.4Z"/>
          <path class="cls-7" d="M128.9,153.3h-1.9c0,1.6,0,3.1.2,4.7.2,2.9.6,5.9,1.4,8.7.8,2.6,1.7,5.1,3.7,7.1,1,1.1,2.2,1.7,3.7,1.9.4,0,.8,0,1.1-.3,2.5-2,4-4.6,5-7.5.9-3,1.4-6.1,1.6-9.2,0-1.2.1-2.4.1-3.6,0-1.1-.4-1.5-1.5-1.6-.1,0-.2,0-.4,0,0-.1,0-.3,0-.4,0-.1,0-.3,0-.5h6.9v.9h-1.8c0,.9,0,1.8-.1,2.7,0,3.5-.3,7-1.2,10.3-.9,3.4-2.5,6.4-5.6,8.4-.9.5-1.8,1-2.7,1.4-.3.1-.5.3-.5.6,0,7.3,0,14.6,0,21.9s0,.2,0,.4h1.8c0,.3,0,.5,0,.8h-7.4v-.7c.2,0,.3,0,.4,0,1-.1,1.3-.5,1.3-1.5,0-6.6,0-13.1,0-19.7s0-.4,0-.5c-.7-.2-1.3-.4-1.9-.6-1.4-.6-2.4-1.7-3.3-2.9-1.8-2.5-2.7-5.4-3.4-8.3-.8-3.4-1-6.9-1.1-10.4,0-1.3-.4-1.8-1.8-1.8v-.8h7.4c0,.3,0,.5,0,.9Z"/>
          <path class="cls-3" d="M67.3,156.7c.2-1.6.5-3.1.7-4.6,0,0,0,0,.1,0,0,0,.1.1.1.2.1.6.5.7,1,.7,3.1,0,6.2,0,9.3,0h6.8c-3.9,5.5-7.7,10.8-11.6,16.3,1-.3,1.8-.6,2.7-.8,1.7-.4,3.3-.8,5-1,2.2-.3,4.2.3,5.7,2.2.7.9,1.1,2,1.2,3.2.2,2.4-.5,4.5-1.4,6.6-1.6,3.4-3.8,6.4-6.3,9.2-3.3,3.7-6.9,7-11,9.7-.6.4-1.2.8-1.8,1.2-.1,0-.3,0-.4.1,0,0,0,0,0-.1.2-.1.3-.3.5-.4,2.5-2.3,5-4.4,7.4-6.8,2.9-2.9,5.4-6.3,7.1-10.1.9-2.1,1.5-4.3,1.6-6.6.1-3.8-2.6-6.4-6.5-6.2-2.5.2-4.9.8-7.2,1.6l-.9.3s-.1,0-.1-.1c3.5-4.9,7.1-9.7,10.6-14.7-4.2,0-8.2,0-12.3,0Z"/>
          <path class="cls-2" d="M106.7,108.8c.3-.8.4-1,.7-1.8-.8,4-.5,8.5-.7,13.1,0,2,0,4-.5,5.9-.5,1.9-1.6,3.2-3.6,3.8-1.4.4-2.7,1.1-3.7,2.5,0-2.7.1-5.3,1.4-7.5.7-1.2,1.6-2.1,2.9-2.6.2,0,.5-.2.7-.3,2.2-1.1,2.4-1.4,2.6-6,0,.3-.2,1.7-.4,2.3-.8,2.1-1.4,2.5-3.5,3.5-.8.3-1.6.7-2.4,1.1-.5.3-.9.7-1.3,1.5,0-2.8.1-5.9,1.8-8.3.8-1.1,1.9-1.8,3.2-2.2,1.8-.6,1.9-1.1,2.2-3.1.1-.6.3-1.4.4-2Z"/>
          <path class="cls-1" d="M72.5,20.9c0,0-.2.1-.3.2,0,0,.2-.1.3-.2Z"/>
          <path class="cls-1" d="M110,81.2c.3,0,.5-.1.8-.3,3.2-1.7,6.7-2.6,10.2-3.1,2.6-.4,5.3-.5,7.9-1.5,3.6-1.4,6.7-3.5,8.5-7,1.1-2.2.9-4.3-.6-6.3-.4-.5-.8-.9-1.3-1.4,0,0,0,0,0,0,1.4.9,2.4,2.2,2.9,3.8,1.2,3.3.9,6.6-.5,9.7-2.1,4.5-5.7,7.4-10.2,9.2-2.8,1.2-5.8,1.8-8.8,2-2.9.2-5.9.4-8.8,1.1-3.3.8-6.5,2-9,4.3-.5.4-.9,1-1.3,1.5-.2.2-.4.4-.6.7,1.1-2.8,2.6-5.5,4.7-7.7,1.7-1.8,3.7-3.3,5.8-4.8,0,0,.1,0,.2-.1h0Z"/>
          <path class="cls-1" d="M135.5,61.5s0,0,0,0c0,0-.4-.3-.5-.4"/>
          <path class="cls-6" d="M109.8,81.3c0,0,.1-.1.2-.1,0,0-.1.1-.2.1Z"/>
        </g>
        <g>
          <path class="cls-3" d="M90.5,112.7c0,.2.2,5,.2,5.2,0,.7.2,1.4.4,2,.2.8.9,1.5,1.6,1.7.3.1.7.3.9.4,2.5,1.2,3.4,2.5,4,4.7.5,1.8.6,3.6.5,5.6-.8-1.3-1.6-1.8-3.1-2.3-3-.9-4.3-3.2-4.6-6.1-.2-2,0-4.1-.1-6.2"/>
          <path class="cls-3" d="M90.5,104.6c0,.2,0,4.9.2,5.8.1.7.1.8.3,1.4.3.8.7,1.4,1.5,1.7.3.1.6.3.8.3,2.3.8,3.6,2.5,4.3,4.8.5,1.8.6,3.7.6,5.7-.8-1.5-2-2-3.1-2.4-3.4-1.1-4.3-3.2-4.6-6.1,0-2.2,0-4.1,0-6.1"/>
          <path class="cls-3" d="M90.5,96.5c0,.2.2,5,.3,5.3,0,.7.2,1.5.3,2.1.2.8.7,1.1,1.4,1.5.3.1.6.3.8.3,2.4.8,3.6,2.5,4.3,4.8.5,1.8.6,3.6.5,5.6-.7-1.6-1.8-1.7-3.1-2.3-3.5-1.4-4.3-3.2-4.6-6.1,0-2.2,0-4.1-.1-6.2"/>
        </g>
      </g>
    </g>
  </g>
</svg>